<svg width="48" height="48" viewBox="0 0 48 48" fill="none" xmlns="http://www.w3.org/2000/svg">
<path d="M40 0C44.4183 0 48 3.58172 48 8V40C48 44.4183 44.4183 48 40 48H8C3.58172 48 0 44.4183 0 40V8C5.15405e-07 3.58172 3.58172 0 8 0H40Z" fill="#2563EB"/>
<path d="M40 0C44.4183 0 48 3.58172 48 8V40C48 44.4183 44.4183 48 40 48H8C3.58172 48 0 44.4183 0 40V8C5.15405e-07 3.58172 3.58172 0 8 0H40Z" stroke="#E5E7EB"/>
<path d="M36.5 38H11.5V10H36.5V38Z" stroke="#E5E7EB"/>
<g clip-path="url(#clip0_9_113)">
<path d="M15.25 18.5C15.25 17.1739 15.7768 15.9021 16.7145 14.9645C17.6521 14.0268 18.9239 13.5 20.25 13.5C21.5761 13.5 22.8479 14.0268 23.7855 14.9645C24.7232 15.9021 25.25 17.1739 25.25 18.5C25.25 19.8261 24.7232 21.0979 23.7855 22.0355C22.8479 22.9732 21.5761 23.5 20.25 23.5C18.9239 23.5 17.6521 22.9732 16.7145 22.0355C15.7768 21.0979 15.25 19.8261 15.25 18.5ZM11.5 32.3398C11.5 28.4922 14.6172 25.375 18.4648 25.375H22.0352C25.8828 25.375 29 28.4922 29 32.3398C29 32.9805 28.4805 33.5 27.8398 33.5H12.6602C12.0195 33.5 11.5 32.9805 11.5 32.3398ZM31.1875 25.6875V23.1875H28.6875C28.168 23.1875 27.75 22.7695 27.75 22.25C27.75 21.7305 28.168 21.3125 28.6875 21.3125H31.1875V18.8125C31.1875 18.293 31.6055 17.875 32.125 17.875C32.6445 17.875 33.0625 18.293 33.0625 18.8125V21.3125H35.5625C36.082 21.3125 36.5 21.7305 36.5 22.25C36.5 22.7695 36.082 23.1875 35.5625 23.1875H33.0625V25.6875C33.0625 26.207 32.6445 26.625 32.125 26.625C31.6055 26.625 31.1875 26.207 31.1875 25.6875Z" fill="white"/>
</g>
<defs>
<clipPath id="clip0_9_113">
<path d="M11.5 13.5H36.5V33.5H11.5V13.5Z" fill="white"/>
</clipPath>
</defs>
</svg>
