<svg width="16" height="24" viewBox="0 0 16 24" fill="none" xmlns="http://www.w3.org/2000/svg">
<path d="M15.25 24H0V0H15.25V24Z" stroke="#E5E7EB"/>
<g clip-path="url(#clip0_9_44)">
<path d="M15.25 12.1812C15.25 16.6031 12.2219 19.75 7.75 19.75C3.4625 19.75 0 16.2875 0 12C0 7.7125 3.4625 4.25 7.75 4.25C9.8375 4.25 11.5938 5.01562 12.9469 6.27813L10.8375 8.30625C8.07812 5.64375 2.94688 7.64375 2.94688 12C2.94688 14.7031 5.10625 16.8938 7.75 16.8938C10.8188 16.8938 11.9688 14.6938 12.15 13.5531H7.75V10.8875H15.1281C15.2 11.2844 15.25 11.6656 15.25 12.1812Z" fill="#EF4444"/>
</g>
<defs>
<clipPath id="clip0_9_44">
<path d="M0 4H15.25V20H0V4Z" fill="white"/>
</clipPath>
</defs>
</svg>
