<svg width="16" height="24" viewBox="0 0 16 24" fill="none" xmlns="http://www.w3.org/2000/svg">
<path d="M16 24H0V0H16V24Z" stroke="#E5E7EB"/>
<path d="M16 20H0V4H16V20Z" stroke="#E5E7EB"/>
<path d="M1.5 6C0.671875 6 0 6.67188 0 7.5C0 7.97187 0.221875 8.41562 0.6 8.7L7.4 13.8C7.75625 14.0656 8.24375 14.0656 8.6 13.8L15.4 8.7C15.7781 8.41562 16 7.97187 16 7.5C16 6.67188 15.3281 6 14.5 6H1.5ZM0 9.5V16C0 17.1031 0.896875 18 2 18H14C15.1031 18 16 17.1031 16 16V9.5L9.2 14.6C8.4875 15.1344 7.5125 15.1344 6.8 14.6L0 9.5Z" fill="#9CA3AF"/>
</svg>
