<svg width="18" height="24" viewBox="0 0 18 24" fill="none" xmlns="http://www.w3.org/2000/svg">
<path d="M18 24H0V0H18V24Z" stroke="#E5E7EB"/>
<path d="M18 22H0V2H18V22Z" stroke="#E5E7EB"/>
<g clip-path="url(#clip0_9_57)">
<path d="M9.00001 5C6.47501 5 4.45314 6.15 2.98126 7.51875C1.51876 8.875 0.540637 10.5 0.0781372 11.6156C-0.0249878 11.8625 -0.0249878 12.1375 0.0781372 12.3844C0.540637 13.5 1.51876 15.125 2.98126 16.4812C4.45314 17.85 6.47501 19 9.00001 19C11.525 19 13.5469 17.85 15.0188 16.4812C16.4813 15.1219 17.4594 13.5 17.925 12.3844C18.0281 12.1375 18.0281 11.8625 17.925 11.6156C17.4594 10.5 16.4813 8.875 15.0188 7.51875C13.5469 6.15 11.525 5 9.00001 5ZM4.50001 12C4.50001 10.8065 4.97412 9.66193 5.81803 8.81802C6.66195 7.97411 7.80654 7.5 9.00001 7.5C10.1935 7.5 11.3381 7.97411 12.182 8.81802C13.0259 9.66193 13.5 10.8065 13.5 12C13.5 13.1935 13.0259 14.3381 12.182 15.182C11.3381 16.0259 10.1935 16.5 9.00001 16.5C7.80654 16.5 6.66195 16.0259 5.81803 15.182C4.97412 14.3381 4.50001 13.1935 4.50001 12ZM9.00001 10C9.00001 11.1031 8.10314 12 7.00001 12C6.77814 12 6.56564 11.9625 6.36564 11.8969C6.19376 11.8406 5.99376 11.9469 6.00001 12.1281C6.00939 12.3438 6.04064 12.5594 6.10001 12.775C6.52814 14.375 8.17501 15.325 9.77501 14.8969C11.375 14.4688 12.325 12.8219 11.8969 11.2219C11.55 9.925 10.4031 9.05312 9.12814 9C8.94689 8.99375 8.84064 9.19062 8.89689 9.36562C8.96251 9.56562 9.00001 9.77812 9.00001 10Z" fill="#9CA3AF"/>
</g>
<defs>
<clipPath id="clip0_9_57">
<path d="M0 4H18V20H0V4Z" fill="white"/>
</clipPath>
</defs>
</svg>
